<svg width="35" height="34" viewBox="0 0 35 34" fill="none" xmlns="http://www.w3.org/2000/svg">
<g clip-path="url(#clip0_402_1066)">
<path d="M10.3846 9.14365C11.6806 9.14365 12.6886 8.11153 12.6886 6.86558V2.30944C12.6886 1.02803 11.6447 0.0313721 10.3846 0.0313721C9.08858 0.0313721 8.08057 1.0635 8.08057 2.30944V6.83005C8.08057 8.11147 9.08858 9.14359 10.3846 9.14359V9.14365Z" fill="#9AD9F3"/>
<path d="M24.7127 9.14365C26.0087 9.14365 27.0168 8.11153 27.0168 6.86558V2.30944C27.0168 1.02803 25.9729 0.0313721 24.7127 0.0313721C23.4167 0.0313721 22.4087 1.0635 22.4087 2.30944V6.83005C22.4087 8.11147 23.4167 9.14359 24.7127 9.14359V9.14365Z" fill="#9AD9F3"/>
<path d="M31.9127 4.58765H28.9246V6.83019C28.9246 9.10826 27.0525 10.9948 24.7126 10.9948C22.4086 10.9948 20.5005 9.10826 20.5005 6.83019V4.58765H14.5962V6.83019C14.5962 9.10826 12.7241 10.9948 10.3841 10.9948C8.0801 10.9948 6.17207 9.10826 6.17207 6.83019V4.58765H3.18403C1.78001 4.58765 0.664062 5.69102 0.664062 7.07922V31.3193C0.664062 32.7075 1.81621 33.8109 3.18403 33.8109H31.9484C33.3524 33.8109 34.4684 32.7075 34.4684 31.3193V7.07922C34.4684 5.69102 33.3165 4.58765 31.9125 4.58765H31.9127ZM12.4004 26.2649C12.4004 26.7632 11.9685 27.1903 11.4645 27.1903H8.36842C7.86443 27.1903 7.43248 26.7633 7.43248 26.2649V23.8801C7.43248 23.3817 7.8644 22.9547 8.36842 22.9547H11.4645C11.9685 22.9547 12.4004 23.3462 12.4004 23.8801V26.2649ZM12.4004 19.3951C12.4004 19.8934 11.9685 20.3205 11.4645 20.3205H8.36842C7.86443 20.3205 7.43248 19.929 7.43248 19.3951V17.0102C7.43248 16.5119 7.8644 16.0848 8.36842 16.0848H11.4645C11.9685 16.0848 12.4004 16.5119 12.4004 17.0102V19.3951ZM20.0325 26.2649C20.0325 26.7632 19.6006 27.1903 19.0966 27.1903H16.0005C15.4965 27.1903 15.0646 26.7633 15.0646 26.2649V23.8801C15.0646 23.3817 15.4606 22.9547 16.0005 22.9547H19.0966C19.6006 22.9547 20.0325 23.3462 20.0325 23.8801V26.2649ZM20.0325 19.3951C20.0325 19.8934 19.6006 20.3205 19.0966 20.3205H16.0005C15.4965 20.3205 15.0646 19.929 15.0646 19.3951V17.0102C15.0646 16.5119 15.4606 16.0848 16.0005 16.0848H19.0966C19.6006 16.0848 20.0325 16.5119 20.0325 17.0102V19.3951ZM27.6286 26.2649C27.6286 26.7632 27.1967 27.1903 26.6927 27.1903H23.6325C23.1285 27.1903 22.6966 26.7633 22.6966 26.2649V23.8801C22.6966 23.3817 23.1285 22.9547 23.6325 22.9547H26.6927C27.1967 22.9547 27.6286 23.3462 27.6286 23.8801V26.2649ZM27.6286 19.3951C27.6286 19.8934 27.1967 20.3205 26.6927 20.3205H23.6325C23.1285 20.3205 22.6966 19.929 22.6966 19.3951V17.0102C22.6966 16.5119 23.1285 16.0848 23.6325 16.0848H26.6927C27.1967 16.0848 27.6286 16.5119 27.6286 17.0102V19.3951Z" fill="#9AD9F3"/>
</g>
<defs>
<clipPath id="clip0_402_1066">
<rect width="33.8469" height="33.8469" fill="white" transform="translate(0.641113)"/>
</clipPath>
</defs>
</svg>
