<svg width="39" height="36" viewBox="0 0 39 36" fill="none" xmlns="http://www.w3.org/2000/svg">
<g clip-path="url(#clip0_402_1073)">
<path d="M4.96292 17.3348V16.6497C2.51171 18.2438 0.886462 20.8171 0.513 23.6951C0.139575 26.573 1.0557 29.4689 3.02057 31.6232L2.44771 35.8984L6.16094 33.941C9.35034 35.4508 13.1075 35.1928 16.0554 33.2612C12.7956 32.0271 9.99013 29.8444 8.01002 27.0009C6.02954 24.1579 4.96729 20.7876 4.96292 17.3348Z" fill="#9AD9F3"/>
<path fill-rule="evenodd" clip-rule="evenodd" d="M38.4747 19.9148C38.1365 21.8543 37.4412 23.7154 36.4227 25.4059L37.5622 28.7538L38.7079 32.0658L32.162 30.1188C31.6499 30.4928 31.1166 30.8367 30.5637 31.1489C30.1957 31.3583 29.8172 31.556 29.4285 31.7414C29.0394 31.9339 28.6439 32.1053 28.241 32.2566C27.8382 32.4079 27.4266 32.5451 27.0067 32.6687C26.6388 32.775 26.2672 32.8695 25.8923 32.9518C22.9692 33.5745 19.9298 33.3963 17.1019 32.4366L16.7684 32.3234C15.8981 32.0086 15.0567 31.6213 14.2532 31.1646L13.9147 30.9638C13.6924 30.8262 13.4719 30.6853 13.2532 30.5413L12.9302 30.3199C12.7148 30.1723 12.5049 30.0178 12.3 29.8565L11.9927 29.6143C11.6905 29.3671 11.3973 29.1095 11.1125 28.8418C10.9251 28.6632 10.7409 28.4811 10.5604 28.2957C10.2898 28.014 10.0293 27.7237 9.77938 27.4251C9.61265 27.2257 9.45136 27.0231 9.29516 26.8172C9.13896 26.6113 8.98784 26.4001 8.84218 26.1838C8.62349 25.8676 8.41535 25.5381 8.21737 25.1946C8.08914 24.9711 7.96419 24.743 7.8425 24.5094C7.28378 23.4554 6.84533 22.3426 6.53548 21.1925C6.46937 20.9349 6.4087 20.674 6.35312 20.4096C6.13154 19.3381 6.01966 18.2477 6.02002 17.154C6.02002 16.7419 6.03564 16.3334 6.06688 15.9281C6.12791 15.1132 6.25178 14.3037 6.43668 13.5072C6.49916 13.2463 6.56673 12.9887 6.63974 12.7347L6.75417 12.3535C6.83373 12.0995 6.91909 11.8487 7.00918 11.6015C7.28195 10.8627 7.60889 10.1449 7.98813 9.45359C8.11672 9.22688 8.24858 9.00196 8.38407 8.77884C8.7248 8.22485 9.09823 7.69166 9.50326 7.18217C9.68053 6.97953 9.85417 6.78048 10.0242 6.58467C10.1909 6.38921 10.3645 6.19843 10.5451 6.01303C10.7256 5.82764 10.9098 5.64547 11.0972 5.46691C14.1329 2.60046 18.1676 1.00122 22.3643 1.00122C26.561 1.00122 30.596 2.60046 33.631 5.46691C33.8185 5.64547 34.0027 5.82764 34.1832 6.01303C34.3467 6.19843 34.5199 6.38885 34.7041 6.58467C34.8883 6.78048 35.0619 6.97953 35.225 7.18217C35.63 7.69165 36.0042 8.22481 36.3446 8.77884C36.4837 8.99873 36.6156 9.22364 36.7405 9.45359C37.1194 10.1449 37.447 10.8628 37.7198 11.6015C37.8099 11.8487 37.8949 12.0995 37.9748 12.3535L38.0893 12.7347C38.1623 12.9887 38.2298 13.2463 38.2923 13.5072C38.6973 15.2508 38.8103 17.048 38.6258 18.828C38.5876 19.2092 38.5372 19.5713 38.4747 19.9148ZM14.4878 19.5915C15.4224 19.5915 16.1801 18.8338 16.1801 17.8991C16.1801 16.9645 15.4224 16.2068 14.4878 16.2068C13.5531 16.2068 12.7954 16.9645 12.7954 17.8991C12.7954 18.8338 13.5531 19.5915 14.4878 19.5915ZM23.5648 17.8991C23.5648 18.8338 22.8071 19.5915 21.8724 19.5915C20.9378 19.5915 20.1801 18.8338 20.1801 17.8991C20.1801 16.9645 20.9378 16.2068 21.8724 16.2068C22.8071 16.2068 23.5648 16.9645 23.5648 17.8991ZM29.2571 19.5915C30.1918 19.5915 30.9495 18.8338 30.9495 17.8991C30.9495 16.9645 30.1918 16.2068 29.2571 16.2068C28.3225 16.2068 27.5648 16.9645 27.5648 17.8991C27.5648 18.8338 28.3225 19.5915 29.2571 19.5915Z" fill="#9AD9F3"/>
</g>
<defs>
<clipPath id="clip0_402_1073">
<rect width="38.3598" height="34.9751" fill="white" transform="translate(0.384766 0.976074)"/>
</clipPath>
</defs>
</svg>
