<svg width="31" height="38" viewBox="0 0 31 38" fill="none" xmlns="http://www.w3.org/2000/svg">
<path d="M15.5645 0.607666C7.66694 0.607666 0.521484 6.6625 0.521484 16.0268C0.521484 22.0064 5.12842 29.0391 14.3235 37.1435C15.038 37.764 16.1099 37.764 16.8244 37.1435C26.0007 29.0391 30.6076 22.0064 30.6076 16.0268C30.6076 6.6625 23.4622 0.607666 15.5645 0.607666ZM15.5645 19.4115C13.4961 19.4115 11.8038 17.7191 11.8038 15.6507C11.8038 13.5823 13.4961 11.89 15.5645 11.89C17.633 11.89 19.3253 13.5823 19.3253 15.6507C19.3253 17.7191 17.633 19.4115 15.5645 19.4115Z" fill="#9AD9F3"/>
</svg>
