<svg width="39" height="39" viewBox="0 0 39 39" fill="none" xmlns="http://www.w3.org/2000/svg">
<g clip-path="url(#clip0_402_1082)">
<path d="M16.6864 22.433C18.7784 24.6001 21.3097 26.2732 24.1024 27.3349L27.8806 24.2648C27.9926 24.186 28.1254 24.1438 28.2614 24.1438C28.3974 24.1438 28.5302 24.186 28.6422 24.2648L35.6574 28.8801C35.9237 29.0436 36.1491 29.2681 36.3159 29.5359C36.4827 29.8037 36.5862 30.1074 36.6182 30.423C36.6503 30.7386 36.6101 31.0575 36.5007 31.3546C36.3913 31.6516 36.2159 31.9186 35.9881 32.1344L32.701 35.4501C32.2302 35.9251 31.6517 36.2737 31.0169 36.4647C30.3821 36.6558 29.7109 36.6834 29.0631 36.5451C22.6014 35.1823 16.6455 31.9906 11.876 27.3349C7.21244 22.6328 3.98527 16.6498 2.58597 10.1117C2.44774 9.46047 2.47659 8.78382 2.66973 8.14732C2.86287 7.51083 3.21374 6.93608 3.68835 6.47876L7.09571 3.12213C7.30656 2.90087 7.5637 2.73118 7.84788 2.62578C8.13205 2.52038 8.4359 2.48199 8.73666 2.51349C9.03742 2.54499 9.32731 2.64556 9.58462 2.80768C9.84192 2.96979 10.06 3.18925 10.2225 3.44961L14.8925 10.521C14.9731 10.6321 15.0166 10.7666 15.0166 10.9048C15.0166 11.043 14.9731 11.1775 14.8925 11.2886L11.8159 15.0648C12.8838 17.8595 14.5475 20.3764 16.6864 22.433Z" fill="#9AD9F3"/>
</g>
<defs>
<clipPath id="clip0_402_1082">
<rect width="37.2316" height="37.2316" fill="white" transform="translate(0.94873 0.951172)"/>
</clipPath>
</defs>
</svg>
